<?xml version="1.0" ?><svg viewBox="0 0 64 64" xmlns="http://www.w3.org/2000/svg"><title/><g data-name="12-Mask" id="_12-Mask"><path d="M38,41v5.42a2,2,0,0,0,1.537,1.946L54.39,51.9A6,6,0,0,1,59,57.739V62" style="fill:none;stroke:#000;stroke-linejoin:round;stroke-width:2px"/><path d="M26,44v2.42a2,2,0,0,1-1.537,1.946L9.61,51.9A6,6,0,0,0,5,57.739V62" style="fill:none;stroke:#000;stroke-linejoin:round;stroke-width:2px"/><path d="M18,19v4H16a2,2,0,0,0-2,2v1c0,2.713,2.529,5.258,5,6,1.276,6.417,6.208,11,13,11s11.724-4.583,13-11c2.471-.742,5-3.287,5-6V25a2,2,0,0,0-2-2H46V19c-5,0-5-8-5-8s-3,5-6,5l1-4s-5,7-12,7V13l-6,5Z" style="fill:none;stroke:#000;stroke-linejoin:round;stroke-width:2px"/><path d="M50,27l3.123-3.9A4,4,0,0,0,54,20.6V12c0-6-5-8-8-8a4.333,4.333,0,0,0-4,2A11.785,11.785,0,0,0,32,1C24,1,22,4,18,6S6,9,6,9a8.613,8.613,0,0,0,8,5,10.8,10.8,0,0,0-4,8c0,5,5,7,5,7" style="fill:none;stroke:#000;stroke-linejoin:round;stroke-width:2px"/><ellipse cx="25" cy="25" rx="2" ry="3" style="fill:none;stroke:#000;stroke-linejoin:round;stroke-width:2px"/><ellipse cx="39" cy="25" rx="2" ry="3" style="fill:none;stroke:#000;stroke-linejoin:round;stroke-width:2px"/><path d="M22,38V30s3-1,10-1,10,1,10,1v8" style="fill:none;stroke:#000;stroke-linejoin:round;stroke-width:2px"/><line style="fill:none;stroke:#000;stroke-linejoin:round;stroke-width:2px" x1="42" x2="46" y1="30" y2="23"/><line style="fill:none;stroke:#000;stroke-linejoin:round;stroke-width:2px" x1="22" x2="18" y1="30" y2="23"/><path d="M25,34a25,25,0,0,1,14,0" style="fill:none;stroke:#000;stroke-linejoin:round;stroke-width:2px"/><path d="M25,38a25,25,0,0,1,14,0" style="fill:none;stroke:#000;stroke-linejoin:round;stroke-width:2px"/><path d="M25,48s2,3,7,3,7-3,7-3" style="fill:none;stroke:#000;stroke-linejoin:round;stroke-width:2px"/><line style="fill:none;stroke:#000;stroke-linejoin:round;stroke-width:2px" x1="52" x2="52" y1="40" y2="46"/><line style="fill:none;stroke:#000;stroke-linejoin:round;stroke-width:2px" x1="55" x2="49" y1="43" y2="43"/><line style="fill:none;stroke:#000;stroke-linejoin:round;stroke-width:2px" x1="12" x2="12" y1="32" y2="38"/><line style="fill:none;stroke:#000;stroke-linejoin:round;stroke-width:2px" x1="15" x2="9" y1="35" y2="35"/><path d="M36,20a4.38,4.38,0,0,1,3-1,4.38,4.38,0,0,1,3,1" style="fill:none;stroke:#000;stroke-linejoin:round;stroke-width:2px"/><path d="M22,20a4.38,4.38,0,0,1,3-1,4.38,4.38,0,0,1,3,1" style="fill:none;stroke:#000;stroke-linejoin:round;stroke-width:2px"/></g></svg>