<?xml version="1.0" ?><svg viewBox="0 0 512 512" xmlns="http://www.w3.org/2000/svg"><g id="Woman_wear_mask"><ellipse cx="220.462" cy="174.5227" rx="7.7596" ry="9.2276"/><path d="M286.95,183.75c4.2854,0,7.76-4.1313,7.76-9.2276s-3.4743-9.2275-7.76-9.2275-7.76,4.1313-7.76,9.2275S282.6641,183.75,286.95,183.75Z"/><path d="M421.0222,442.411a145.0768,145.0768,0,0,0-10.3428-44.6973,113.7225,113.7225,0,0,0-14.9956-26.495c.0487-.1331.111-.2578.1509-.3961,13.3-46.082,6.1651-88.1152-2.1631-115.2622A215.7172,215.7172,0,0,0,374.4064,210.79a32.572,32.572,0,0,0-4.3723-49.5719c3.588-50.9862-7.2673-90.0531-32.3254-116.1333-32.8652-34.206-77.9111-33.2431-81.3486-33.1215h-.5439c-3.4385-.126-48.4844-1.0835-81.3492,33.122-25.1478,26.1731-36,65.4189-32.2951,116.6732a32.5788,32.5788,0,0,0-2.6031,50.0113A217.44,217.44,0,0,0,120.8723,255.56c-8.21,26.7641-15.2467,68-2.6992,113.3176a112.1568,112.1568,0,0,0-16.853,28.8357A145.0578,145.0578,0,0,0,90.9783,442.411c-.003.0757-.0044.1519-.0044.2275,0,11.7124,8.8442,28.52,50.978,42.0757,30.3359,9.76,70.4131,15.1973,113.0361,15.3477.066.0024.1324.0034.1988.0034h1.6264c.0664,0,.1328-.001.1993-.0034,42.623-.15,82.7-5.5874,113.0351-15.3477,42.1338-13.5561,50.9785-30.3633,50.9785-42.0757C421.0261,442.5629,421.0251,442.4867,421.0222,442.411ZM350.7439,167.2123q.0732,0,.1465.0044c.0431.0023.0845-.0027.1274-.0013.07.0024.1375.0105.2075.0105a20.6263,20.6263,0,0,1,4.2778,40.8047q.8741-5.1442,1.3121-10.4048a6.0005,6.0005,0,0,0-11.961-.9794c-2.01,24.5346-12.1611,47.2353-28.5859,63.92-.23.2331-.4643.4579-.6959.688,5.8026-12.0474,8.2916-24.6161,9.3331-33.9567.0537-.24.1155-.5287.1968-.91C334.3689,182.8446,345.4421,167.2123,350.7439,167.2123ZM295.3533,125.659A9.6151,9.6151,0,0,1,308.2,127.67c7.7351,9.7274,18.8637,22.3892,31.1757,32.293-8.4071,7.3752-15.8258,23.3258-22.1941,47.7156a21.7686,21.7686,0,0,0-3.1486-2.1922c-19.2725-10.9492-38.837-16.8067-58.15-17.4087-.125-.0039-.249-.0039-.374,0-19.3125.602-38.8769,6.4595-58.15,17.4087a21.7641,21.7641,0,0,0-3.23,2.2609q-7.1418-27.3445-16.0175-40.5059C201.1157,165.8885,245.0344,158.5159,295.3533,125.659ZM255.6965,286.368c-18.9521,0-51.6015-7.894-57.3261-60.7636a9.8883,9.8883,0,0,1,4.917-9.6841c17.4956-9.94,35.1274-15.2691,52.4091-15.8423,17.2818.5732,34.9136,5.9028,52.4087,15.8423a9.8916,9.8916,0,0,1,4.918,9.6841C307.2966,278.474,274.6482,286.368,255.6965,286.368Zm49.3529,47.0268C302.1337,341.5066,282.44,351.9359,256,351.9359c-25.9749,0-45.4523-10.0677-48.8935-18.1132,11.3028-8.0822,20.3686-19.5739,22.0006-40.1874a76.9722,76.9722,0,0,0,53.7745-.2336C283.89,305.626,288.3982,320.49,305.0494,333.3948ZM161.2042,167.2528l-.0072.0389c5.5154,1.1551,16.0861,17.2258,24.999,59.089.1811.85.2715,1.2733.3726,1.612a108.6786,108.6786,0,0,0,7.8193,30.1241c-15.0612-16.4252-24.37-38.11-26.2832-61.47a6,6,0,1,0-11.96.9795q.4307,5.2569,1.3117,10.4043a20.6151,20.6151,0,0,1,3.7477-40.7778Zm94.7963,320.812c-90.0479-.1426-152.78-23.9126-153.0259-45.3022a135.8668,135.8668,0,0,1,9.5923-40.8462c11.3843-27.6968,30.1943-45.1031,55.9072-51.7354.8394-.2163,1.7779-.4077,3.0415-.62a76.8243,76.8243,0,0,0,21.6216-7.47q1.8948-.9737,3.7766-1.9928C204.31,353.6708,228.3672,363.9359,256,363.9359c27.6641,0,51.7451-10.2883,59.1121-23.8836,1.2109.6879,2.45,1.37,3.7517,2.0389a76.8243,76.8243,0,0,0,21.62,7.47c1.2646.2119,2.2031.4033,3.043.62,25.7124,6.6318,44.5224,24.0381,55.9067,51.7349a135.8452,135.8452,0,0,1,9.5923,40.8457C408.7881,464.1527,346.0537,487.9222,256.0005,488.0648Z"/><path d="M298.0681,221.2782c-23.7685-16.0523-45.3037-15.16-59.1865-11.5845A68.3552,68.3552,0,0,0,214.03,221.64a6,6,0,1,0,7.68,9.2207c.3091-.2573,31.3887-25.4731,69.6416.3618a6,6,0,1,0,6.7168-9.9443Z"/></g></svg>